<svg width="48" height="48" viewBox="0 0 48 48" fill="none" xmlns="http://www.w3.org/2000/svg">
<rect width="48" height="48" rx="1.6128" fill="#E4E5E7"/>
<path d="M12.6296 32.6597H9.24271V13.0104H12.6565L22.8709 28.4664H21.8763V13.0104H25.2632V32.6597H21.8763L11.635 17.2305H12.6296V32.6597ZM25.0482 18.4939C25.0482 17.347 25.3438 16.3345 25.9352 15.4565C26.5266 14.5784 27.3419 13.8974 28.3813 13.4136C29.4386 12.9118 30.6571 12.6609 32.037 12.6609C33.363 12.6609 34.5099 12.8939 35.4776 13.3598C36.4632 13.8257 37.2248 14.4888 37.7624 15.3489C38.3179 16.2091 38.6136 17.2305 38.6494 18.4133H35.2088C35.173 17.571 34.8683 16.9169 34.2949 16.451C33.7214 15.9672 32.9509 15.7253 31.9832 15.7253C30.9259 15.7253 30.0747 15.9672 29.4296 16.451C28.8024 16.9169 28.4888 17.5621 28.4888 18.3864C28.4888 19.0853 28.677 19.6408 29.0533 20.0529C29.4475 20.4472 30.0568 20.7429 30.8811 20.94L33.9723 21.6389C35.6568 21.9973 36.9112 22.6155 37.7355 23.4936C38.5598 24.3537 38.972 25.5185 38.972 26.988C38.972 28.1886 38.6763 29.2459 38.085 30.1598C37.4936 31.0737 36.6514 31.7816 35.5582 32.2833C34.483 32.7672 33.2197 33.0091 31.7682 33.0091C30.3883 33.0091 29.1787 32.7761 28.1394 32.3102C27.1 31.8264 26.2846 31.1544 25.6933 30.2942C25.1198 29.4341 24.8152 28.4216 24.7794 27.2568H28.22C28.2379 28.0811 28.5605 28.7352 29.1877 29.219C29.8328 29.6849 30.7019 29.9179 31.795 29.9179C32.9419 29.9179 33.8469 29.6849 34.5099 29.219C35.1909 28.7352 35.5314 28.099 35.5314 27.3105C35.5314 26.6296 35.3522 26.092 34.9938 25.6977C34.6354 25.2856 34.053 24.9989 33.2466 24.8376L30.1285 24.1387C28.4619 23.7803 27.1986 23.1352 26.3384 22.2033C25.4782 21.2536 25.0482 20.0171 25.0482 18.4939ZM40.4481 32.9822C39.8567 32.9822 39.346 32.7761 38.9159 32.364C38.4858 31.9518 38.2708 31.4501 38.2708 30.8587C38.2708 30.2673 38.4858 29.7656 38.9159 29.3534C39.346 28.9233 39.8567 28.7083 40.4481 28.7083C41.0394 28.7083 41.5502 28.9233 41.9802 29.3534C42.4103 29.7656 42.6254 30.2673 42.6254 30.8587C42.6254 31.4501 42.4103 31.9518 41.9802 32.364C41.5502 32.7761 41.0394 32.9822 40.4481 32.9822Z" fill="#232323"/>
</svg>
